# xmcd
#
# Track frame offsets:
#	150
#	12547
#	24402
#	36718
#	49995
#	61406
#	73777
#	83374
#	97257
#	108768
#	119173
#	130006
#	142145
#	151742
#	164221
#	174259
#
# Disc length: 2511 seconds
#
# Revision: 1
# Processed by: cddbd v1.5.2PL0 Copyright (c) Steve Scherf et al.
# Submitted via: EasyCDDAExtractor 12.0.5.1
#
DISCID=e609cd10
DTITLE=Various Artist - Golden Age of Country - The Wild Side of Life
DYEAR=2009
DGENRE=Country
TTITLE0=Johnny Cash - I Walk The Line
TTITLE1=Tennessee Ernie Ford - Sixteen Tons
TTITLE2=Hank Thompson - The Wild Side Of Life
TTITLE3=Jerry Lee Lewis - You Win Again
TTITLE4=Sonny James - Young Love
TTITLE5=Merle Haggard and the Strangers - Okie From Muskogee
TTITLE6=George Jones - The Race Is On
TTITLE7=Glen Campbell - Wichita Lineman
TTITLE8=Wynn Stewart - It's Such a Pretty World Today
TTITLE9=Ferlin Husky - Wings Of A Dove
TTITLE10=Faron Young - Hello Walls
TTITLE11=George Jones and Melba Montgomery - We Must Have Been Out Of Our Mind
TTITLE11=s
TTITLE12=The Louvin Brothers - I Don't Believe You've Met My Baby
TTITLE13=Skeets McDonald - Don't Let The Stars Get In Your Eyes
TTITLE14=Margaret Whiting and Jimmy Wakely - Slipping Around
TTITLE15=Slim Whitman - Indian Love Call
EXTD=
EXTT0=
EXTT1=
EXTT2=
EXTT3=
EXTT4=
EXTT5=
EXTT6=
EXTT7=
EXTT8=
EXTT9=
EXTT10=
EXTT11=
EXTT12=
EXTT13=
EXTT14=
EXTT15=
PLAYORDER=
